<svg id="svg" version="1.1" width="400" height="150" xmlns="http://www.w3.org/2000/svg" xmlns:xlink="http://www.w3.org/1999/xlink"><g id="svgg"><path id="path0" d="M38.167 60.752 L 38.167 96.171 44.125 96.127 L 50.083 96.083 50.177 85.250 C 50.273 74.208,50.340 73.089,50.950 72.294 C 51.039 72.178,51.283 71.652,51.492 71.125 C 51.701 70.598,51.933 70.167,52.008 70.167 C 52.083 70.167,52.191 70.021,52.247 69.842 C 52.360 69.487,54.416 67.333,54.642 67.333 C 54.719 67.333,54.955 67.184,55.165 67.001 C 55.598 66.626,56.380 66.369,57.542 66.221 C 57.977 66.166,58.333 66.056,58.333 65.977 C 58.333 65.776,59.458 65.797,59.583 66.000 C 59.640 66.092,59.851 66.167,60.052 66.168 C 60.859 66.170,61.706 66.551,62.380 67.217 C 63.669 68.490,63.578 67.370,63.630 82.542 L 63.676 96.167 69.761 96.167 L 75.846 96.167 75.786 80.792 C 75.722 64.250,75.733 64.473,74.852 62.716 C 74.658 62.331,74.500 61.937,74.500 61.841 C 74.500 61.745,74.369 61.531,74.208 61.364 C 74.048 61.198,73.773 60.809,73.598 60.501 C 73.184 59.772,71.166 57.808,70.417 57.405 C 70.096 57.232,69.833 57.042,69.833 56.981 C 69.833 56.921,69.402 56.699,68.875 56.488 C 68.348 56.277,67.876 56.045,67.826 55.973 C 67.440 55.414,61.620 54.973,59.144 55.316 C 57.268 55.576,56.167 55.835,56.167 56.017 C 56.167 56.099,56.015 56.167,55.829 56.167 C 55.397 56.167,53.635 56.783,53.511 56.977 C 53.459 57.058,53.023 57.293,52.542 57.500 C 52.060 57.706,51.667 57.929,51.667 57.995 C 51.667 58.062,51.363 58.253,50.992 58.420 C 50.621 58.588,50.265 58.807,50.200 58.908 C 50.136 59.009,49.874 59.224,49.618 59.387 L 49.154 59.683 49.246 56.883 C 49.297 55.343,49.412 49.208,49.501 43.250 C 49.591 37.292,49.710 30.823,49.767 28.875 L 49.870 25.333 44.018 25.333 L 38.167 25.333 38.167 60.752 M327.833 60.750 L 327.833 96.167 333.833 96.167 L 339.833 96.167 339.833 85.998 C 339.833 80.405,339.899 75.699,339.979 75.539 C 340.060 75.380,340.242 74.631,340.384 73.876 C 340.639 72.514,341.551 70.399,342.250 69.546 C 343.947 67.474,346.018 66.167,347.603 66.167 C 347.902 66.167,348.193 66.092,348.250 66.000 C 348.376 65.796,349.500 65.776,349.500 65.977 C 349.500 66.057,349.830 66.167,350.233 66.222 C 351.296 66.367,352.040 66.777,352.505 67.472 C 352.730 67.808,352.962 68.121,353.022 68.167 C 353.524 68.554,353.571 69.709,353.625 82.875 L 353.680 96.167 359.680 96.167 L 365.680 96.167 365.619 80.625 C 365.558 65.040,365.500 63.500,364.972 63.500 C 364.896 63.500,364.833 63.383,364.833 63.239 C 364.833 62.909,364.161 61.333,364.020 61.333 C 363.962 61.333,363.812 61.102,363.688 60.820 C 363.402 60.174,361.294 58.040,360.414 57.505 C 360.049 57.283,359.712 57.050,359.667 56.988 C 359.621 56.926,359.171 56.701,358.667 56.488 C 358.162 56.275,357.712 56.050,357.667 55.988 C 356.951 55.022,348.239 54.967,346.083 55.916 C 345.808 56.037,345.145 56.268,344.609 56.429 C 344.073 56.590,343.548 56.805,343.442 56.906 C 343.337 57.007,342.920 57.236,342.517 57.414 C 342.114 57.593,341.702 57.819,341.601 57.917 C 341.499 58.015,341.079 58.298,340.667 58.547 C 340.254 58.796,339.661 59.206,339.348 59.458 C 338.894 59.824,338.816 59.849,338.961 59.583 C 339.082 59.360,339.202 55.134,339.324 46.833 C 339.425 40.004,339.554 32.373,339.613 29.875 L 339.719 25.333 333.776 25.333 L 327.833 25.333 327.833 60.750 M103.333 54.983 C 103.333 55.065,102.715 55.167,101.958 55.209 C 100.383 55.296,97.637 55.778,97.505 55.991 C 97.457 56.069,96.985 56.259,96.458 56.412 C 95.931 56.565,95.400 56.790,95.278 56.912 C 95.156 57.034,94.687 57.258,94.236 57.408 C 93.786 57.559,93.342 57.773,93.250 57.883 C 93.158 57.993,92.746 58.267,92.333 58.492 C 91.485 58.954,91.327 59.067,90.635 59.708 C 90.363 59.960,90.090 60.167,90.027 60.167 C 89.881 60.167,87.339 62.806,86.969 63.343 C 85.794 65.045,85.334 65.777,85.334 65.946 C 85.334 66.054,85.231 66.246,85.105 66.371 C 84.807 66.669,84.333 67.589,84.333 67.869 C 84.333 67.990,84.187 68.361,84.008 68.695 C 83.830 69.028,83.558 69.927,83.405 70.692 C 83.252 71.457,83.050 72.179,82.957 72.295 C 82.713 72.599,82.598 77.709,82.807 79.000 C 83.111 80.889,83.792 83.569,83.983 83.633 C 84.084 83.667,84.167 83.847,84.167 84.032 C 84.167 84.414,85.508 87.309,85.857 87.681 C 85.981 87.814,86.228 88.184,86.405 88.503 C 86.764 89.149,87.076 89.513,88.700 91.184 C 89.315 91.816,89.884 92.333,89.966 92.333 C 90.048 92.333,90.250 92.483,90.415 92.665 C 90.580 92.848,91.061 93.197,91.483 93.442 C 91.905 93.687,92.287 93.940,92.333 94.005 C 92.469 94.196,93.800 94.833,94.063 94.833 C 94.196 94.833,94.331 94.908,94.361 94.998 C 94.392 95.089,94.867 95.315,95.417 95.501 C 95.967 95.687,96.533 95.904,96.676 95.984 C 98.835 97.193,108.243 97.290,110.833 96.129 C 111.154 95.986,111.960 95.697,112.625 95.487 C 113.290 95.277,113.833 95.045,113.833 94.970 C 113.833 94.895,113.949 94.833,114.090 94.833 C 114.347 94.833,115.677 94.212,115.833 94.019 C 115.879 93.963,116.292 93.733,116.750 93.509 C 117.208 93.285,117.658 93.041,117.750 92.967 C 117.842 92.893,118.291 92.588,118.748 92.291 C 119.206 91.993,119.602 91.637,119.628 91.499 C 119.672 91.264,118.614 89.471,117.843 88.474 C 117.654 88.230,117.500 87.975,117.500 87.908 C 117.500 87.840,117.237 87.389,116.917 86.906 C 116.596 86.422,116.333 85.950,116.333 85.855 C 116.333 85.761,116.234 85.623,116.113 85.550 C 115.992 85.477,115.698 85.079,115.460 84.667 C 115.221 84.254,114.821 83.560,114.570 83.125 C 114.057 82.234,113.827 82.173,113.018 82.709 C 110.565 84.332,108.407 85.406,107.083 85.662 C 106.533 85.769,105.812 85.926,105.481 86.011 C 104.696 86.214,104.046 86.209,103.917 86.000 C 103.860 85.908,103.462 85.833,103.032 85.832 C 101.730 85.831,99.143 84.823,97.861 83.818 L 97.472 83.513 97.944 83.415 C 98.204 83.360,98.642 83.208,98.917 83.077 C 99.192 82.945,99.942 82.678,100.583 82.484 C 101.225 82.289,101.787 82.080,101.833 82.020 C 101.879 81.960,102.517 81.738,103.250 81.527 C 103.983 81.316,104.608 81.073,104.639 80.988 C 104.669 80.903,104.826 80.833,104.988 80.833 C 105.281 80.833,106.953 80.304,107.583 80.012 C 107.767 79.927,108.442 79.695,109.083 79.497 C 109.725 79.299,110.497 79.026,110.798 78.891 C 111.100 78.756,111.737 78.533,112.215 78.397 C 112.693 78.261,113.308 78.047,113.583 77.921 C 113.858 77.795,114.571 77.531,115.167 77.335 C 115.763 77.138,116.700 76.829,117.250 76.647 C 117.800 76.466,118.475 76.208,118.750 76.074 C 119.025 75.941,119.691 75.718,120.230 75.579 C 120.770 75.440,121.407 75.221,121.647 75.093 C 121.887 74.966,122.646 74.690,123.333 74.480 C 124.807 74.031,125.333 73.638,125.055 73.193 C 124.954 73.030,124.739 72.301,124.579 71.573 C 124.420 70.846,124.156 69.985,123.993 69.662 C 123.830 69.338,123.573 68.644,123.420 68.120 C 123.268 67.596,123.088 67.167,123.021 67.167 C 122.954 67.167,122.763 66.788,122.597 66.326 C 122.430 65.863,122.209 65.395,122.106 65.284 C 122.002 65.174,121.749 64.727,121.544 64.292 C 121.339 63.856,121.109 63.500,121.033 63.500 C 120.957 63.500,120.769 63.235,120.614 62.912 C 120.460 62.588,120.221 62.280,120.084 62.227 C 119.946 62.174,119.833 62.045,119.833 61.940 C 119.833 61.567,116.455 58.339,116.057 58.330 C 115.980 58.329,115.753 58.155,115.554 57.944 C 115.354 57.734,114.889 57.462,114.521 57.340 C 114.152 57.219,113.815 57.027,113.772 56.914 C 113.729 56.802,113.481 56.658,113.222 56.595 C 112.962 56.532,112.450 56.342,112.083 56.173 C 111.214 55.771,108.508 55.167,107.581 55.167 C 107.180 55.167,106.807 55.092,106.750 55.000 C 106.622 54.793,103.333 54.776,103.333 54.983 M229.417 55.000 C 229.360 55.092,228.924 55.169,228.448 55.172 C 227.336 55.178,224.077 55.729,223.798 55.958 C 223.680 56.055,223.246 56.220,222.833 56.325 C 221.823 56.582,221.167 56.847,221.167 56.999 C 221.167 57.067,220.834 57.216,220.428 57.330 C 220.022 57.444,219.553 57.660,219.386 57.810 C 219.218 57.960,218.749 58.265,218.343 58.486 C 217.493 58.951,217.112 59.235,216.483 59.875 C 216.236 60.127,215.966 60.333,215.884 60.333 C 215.694 60.333,213.770 62.350,213.384 62.955 C 213.222 63.209,212.957 63.515,212.795 63.634 C 212.633 63.754,212.500 63.942,212.500 64.051 C 212.500 64.161,212.315 64.464,212.090 64.726 C 211.865 64.988,211.555 65.532,211.401 65.934 C 211.247 66.337,211.068 66.667,211.003 66.667 C 210.939 66.667,210.705 67.210,210.484 67.875 C 210.264 68.540,210.036 69.121,209.978 69.167 C 209.612 69.457,208.965 73.856,208.973 76.000 C 208.982 78.595,209.500 81.942,210.098 83.275 C 210.227 83.564,210.333 83.891,210.333 84.002 C 210.333 84.306,211.840 87.298,212.103 87.516 C 212.230 87.622,212.333 87.800,212.333 87.913 C 212.333 88.026,212.517 88.316,212.741 88.558 C 212.966 88.800,213.209 89.103,213.283 89.231 C 213.533 89.666,215.248 91.414,216.161 92.167 C 216.662 92.579,217.220 93.048,217.401 93.208 C 217.582 93.369,217.809 93.500,217.907 93.500 C 218.005 93.500,218.443 93.755,218.882 94.067 C 219.320 94.379,219.882 94.684,220.129 94.747 C 220.377 94.809,220.618 94.918,220.665 94.988 C 220.787 95.173,222.617 95.833,223.006 95.833 C 223.186 95.833,223.333 95.894,223.333 95.968 C 223.333 96.408,229.034 97.225,231.333 97.114 C 233.402 97.014,237.214 96.417,237.869 96.091 C 238.123 95.964,238.561 95.810,238.843 95.748 C 239.125 95.686,239.557 95.530,239.803 95.402 C 240.049 95.274,240.344 95.168,240.458 95.168 C 240.573 95.167,240.667 95.110,240.667 95.042 C 240.668 94.973,241.024 94.773,241.459 94.597 C 241.894 94.421,242.448 94.121,242.690 93.930 C 242.932 93.739,243.557 93.283,244.080 92.917 C 244.602 92.550,245.201 92.100,245.410 91.917 C 245.619 91.733,245.931 91.466,246.103 91.322 C 246.276 91.179,246.717 90.702,247.083 90.263 C 247.450 89.823,247.956 89.228,248.207 88.940 C 248.458 88.652,248.713 88.267,248.773 88.084 C 248.833 87.901,248.976 87.676,249.092 87.584 C 249.207 87.492,249.579 86.854,249.919 86.167 C 250.258 85.479,250.603 84.786,250.685 84.627 C 250.766 84.468,250.833 84.231,250.833 84.099 C 250.833 83.968,250.891 83.836,250.961 83.806 C 251.144 83.725,251.646 82.034,251.772 81.072 C 251.831 80.620,251.948 80.163,252.031 80.057 C 252.506 79.451,252.503 72.547,252.028 71.940 C 251.946 71.835,251.832 71.375,251.774 70.917 C 251.641 69.857,251.145 68.167,250.968 68.167 C 250.894 68.167,250.833 68.032,250.833 67.867 C 250.833 67.524,249.410 64.668,249.113 64.416 C 249.005 64.324,248.771 63.987,248.594 63.666 C 248.137 62.843,246.364 60.805,245.804 60.461 C 245.545 60.302,245.333 60.103,245.333 60.019 C 245.333 59.935,245.090 59.709,244.792 59.517 C 243.653 58.781,242.738 58.165,242.426 57.922 C 242.248 57.783,241.761 57.542,241.343 57.385 C 240.925 57.229,240.546 57.057,240.500 57.004 C 240.339 56.817,239.076 56.343,238.458 56.237 C 238.115 56.178,237.833 56.068,237.833 55.993 C 237.833 55.734,234.501 55.167,232.980 55.167 C 232.544 55.167,232.140 55.092,232.083 55.000 C 232.027 54.908,231.427 54.833,230.750 54.833 C 230.073 54.833,229.473 54.908,229.417 55.000 M187.417 55.687 C 186.592 55.764,185.767 55.899,185.583 55.985 C 185.400 56.071,185.063 56.179,184.833 56.224 C 183.881 56.413,182.430 56.871,182.099 57.088 C 181.904 57.216,181.434 57.430,181.055 57.564 C 180.676 57.698,180.040 58.013,179.641 58.265 C 177.272 59.763,177.473 59.607,175.458 61.506 C 174.748 62.175,174.167 62.815,174.167 62.927 C 174.167 63.039,174.054 63.174,173.916 63.227 C 173.779 63.280,173.540 63.588,173.386 63.912 C 173.231 64.235,173.043 64.500,172.967 64.500 C 172.891 64.500,172.661 64.856,172.456 65.292 C 172.251 65.727,171.993 66.158,171.883 66.250 C 171.773 66.342,171.558 66.792,171.405 67.250 C 171.252 67.708,171.061 68.125,170.981 68.176 C 170.900 68.228,170.683 68.865,170.499 69.593 C 170.315 70.321,170.087 71.051,169.993 71.215 C 169.465 72.136,169.447 80.724,169.971 81.392 C 170.053 81.497,170.256 82.144,170.421 82.829 C 170.586 83.515,170.925 84.490,171.173 84.996 C 171.422 85.502,171.677 86.085,171.741 86.292 C 171.804 86.498,171.911 86.667,171.978 86.667 C 172.045 86.667,172.189 86.910,172.298 87.208 C 172.407 87.506,172.721 88.013,172.997 88.333 C 173.273 88.654,173.499 88.978,173.500 89.054 C 173.500 89.175,174.448 90.243,175.433 91.232 C 175.750 91.550,176.861 92.531,177.500 93.056 C 177.637 93.169,178.048 93.409,178.412 93.589 C 178.776 93.769,179.209 94.037,179.375 94.183 C 179.540 94.330,179.992 94.552,180.379 94.678 C 180.767 94.804,181.179 94.999,181.297 95.113 C 181.414 95.227,181.939 95.446,182.463 95.600 C 182.988 95.754,183.655 95.983,183.946 96.109 C 184.686 96.428,185.917 96.642,187.764 96.772 C 188.633 96.833,189.384 96.947,189.432 97.025 C 189.550 97.216,192.429 97.206,192.794 97.014 C 192.953 96.930,193.886 96.778,194.867 96.675 C 196.641 96.489,197.274 96.346,198.275 95.900 C 198.564 95.772,198.899 95.667,199.020 95.667 C 199.387 95.667,200.667 95.131,200.667 94.977 C 200.667 94.898,200.746 94.833,200.842 94.833 C 201.103 94.833,202.465 94.191,202.572 94.018 C 202.623 93.935,202.970 93.709,203.343 93.515 C 203.715 93.320,204.221 92.975,204.467 92.747 C 204.712 92.520,204.999 92.333,205.104 92.333 C 205.209 92.333,205.418 92.146,205.568 91.917 C 205.718 91.688,205.952 91.500,206.087 91.500 C 206.402 91.500,206.409 90.863,206.098 90.514 C 205.968 90.369,205.631 90.000,205.348 89.696 C 205.065 89.391,204.833 89.078,204.833 89.002 C 204.833 88.926,204.608 88.674,204.333 88.442 C 204.058 88.211,203.833 87.960,203.833 87.886 C 203.832 87.811,203.626 87.525,203.374 87.249 C 203.123 86.974,202.556 86.299,202.116 85.749 C 199.817 82.883,199.951 82.973,198.973 83.625 C 197.256 84.770,195.683 85.613,195.000 85.755 C 194.679 85.821,194.366 85.955,194.304 86.052 C 194.147 86.299,189.296 86.310,188.985 86.065 C 188.856 85.963,188.318 85.746,187.790 85.583 C 187.263 85.420,186.670 85.147,186.473 84.977 C 186.277 84.806,186.046 84.667,185.962 84.667 C 185.715 84.667,183.333 82.175,183.333 81.917 C 183.333 81.789,183.221 81.620,183.083 81.543 C 182.945 81.466,182.680 80.956,182.494 80.410 C 182.307 79.864,182.085 79.267,182.000 79.083 C 181.493 77.995,181.498 74.381,182.008 73.250 C 182.091 73.067,182.321 72.471,182.520 71.925 C 182.719 71.380,183.021 70.785,183.191 70.602 C 183.361 70.420,183.500 70.197,183.500 70.108 C 183.500 69.789,185.668 67.857,186.617 67.331 C 189.552 65.703,195.070 66.152,197.399 68.208 C 197.581 68.369,197.796 68.500,197.878 68.500 C 197.959 68.500,198.445 68.800,198.957 69.167 C 200.160 70.029,200.357 70.010,201.163 68.958 C 201.531 68.477,201.934 67.971,202.059 67.833 C 202.183 67.696,202.425 67.358,202.597 67.083 C 202.768 66.808,202.957 66.546,203.016 66.500 C 203.186 66.368,204.833 64.188,204.833 64.095 C 204.833 64.049,204.988 63.840,205.177 63.631 C 206.414 62.257,206.889 61.333,206.358 61.333 C 206.280 61.333,205.961 61.108,205.650 60.833 C 204.645 59.944,204.526 59.855,203.967 59.572 C 203.664 59.419,203.304 59.195,203.167 59.076 C 202.870 58.818,200.321 57.500,200.119 57.500 C 200.042 57.500,199.590 57.321,199.115 57.103 C 198.133 56.653,196.548 56.167,196.060 56.167 C 195.880 56.167,195.662 56.100,195.575 56.018 C 195.115 55.588,190.470 55.399,187.417 55.687 M303.167 55.688 C 302.387 55.767,301.600 55.902,301.417 55.987 C 301.233 56.072,300.896 56.179,300.667 56.224 C 299.771 56.400,298.382 56.841,297.667 57.175 C 296.981 57.496,296.505 57.734,295.083 58.468 C 294.644 58.694,293.933 59.204,292.354 60.420 C 291.499 61.079,289.167 63.614,289.167 63.884 C 289.167 63.939,288.979 64.185,288.750 64.432 C 288.521 64.680,288.333 64.978,288.333 65.096 C 288.333 65.213,288.237 65.409,288.118 65.530 C 287.726 65.931,286.535 68.569,286.325 69.500 C 286.211 70.004,286.059 70.456,285.986 70.504 C 285.141 71.058,285.213 79.958,286.081 82.417 C 286.308 83.058,286.495 83.713,286.496 83.871 C 286.502 84.296,288.522 88.151,288.955 88.563 C 289.160 88.758,289.329 88.998,289.330 89.097 C 289.332 89.197,289.540 89.469,289.792 89.702 C 290.044 89.935,290.573 90.510,290.968 90.980 C 291.362 91.449,291.750 91.833,291.830 91.833 C 291.909 91.833,292.224 92.065,292.529 92.348 C 293.420 93.175,293.553 93.274,294.167 93.585 C 294.487 93.747,294.787 93.931,294.833 93.993 C 294.955 94.158,296.404 94.833,296.636 94.833 C 296.745 94.833,296.833 94.894,296.833 94.969 C 296.833 95.128,298.780 95.837,299.208 95.835 C 299.369 95.834,299.500 95.893,299.500 95.965 C 299.500 96.199,301.030 96.519,303.000 96.697 C 304.054 96.792,305.073 96.943,305.263 97.032 C 306.083 97.412,313.417 96.531,313.833 96.002 C 313.879 95.944,314.427 95.760,315.051 95.594 C 315.674 95.427,316.274 95.202,316.384 95.093 C 316.494 94.984,316.996 94.692,317.500 94.444 C 318.838 93.785,319.833 93.164,319.833 92.988 C 319.833 92.903,319.911 92.833,320.007 92.833 C 320.383 92.833,322.167 91.333,322.167 91.016 C 322.167 90.916,322.027 90.673,321.856 90.478 C 321.685 90.282,321.329 89.864,321.064 89.549 C 320.800 89.234,320.377 88.764,320.125 88.505 C 319.873 88.245,319.667 87.956,319.667 87.862 C 319.667 87.768,319.498 87.554,319.291 87.387 C 319.084 87.220,318.793 86.896,318.643 86.667 C 318.494 86.438,318.232 86.090,318.061 85.894 C 317.890 85.697,317.487 85.215,317.167 84.821 C 316.846 84.427,316.372 83.878,316.114 83.600 L 315.646 83.095 314.906 83.487 C 314.499 83.703,314.167 83.927,314.167 83.985 C 314.167 84.043,313.812 84.276,313.378 84.503 C 312.944 84.731,312.501 84.998,312.394 85.097 C 312.286 85.196,311.760 85.414,311.224 85.581 C 310.688 85.748,310.201 85.960,310.140 86.052 C 309.982 86.294,305.325 86.299,304.819 86.058 C 304.598 85.952,303.948 85.699,303.375 85.496 C 302.802 85.292,302.333 85.060,302.333 84.980 C 302.333 84.899,302.255 84.833,302.160 84.833 C 301.377 84.833,298.987 82.166,298.389 80.625 C 298.238 80.235,298.061 79.842,297.995 79.750 C 297.277 78.740,297.301 72.667,298.023 72.667 C 298.102 72.667,298.167 72.564,298.167 72.438 C 298.167 72.063,298.861 70.594,299.106 70.450 C 299.231 70.377,299.333 70.225,299.333 70.113 C 299.333 69.311,302.828 66.874,304.488 66.518 C 306.511 66.084,310.379 66.466,311.314 67.191 C 311.533 67.361,311.791 67.500,311.887 67.500 C 312.109 67.500,314.397 68.865,314.474 69.043 C 314.555 69.232,315.772 69.833,316.073 69.833 C 316.212 69.833,316.457 69.627,316.617 69.375 C 316.777 69.123,317.004 68.857,317.121 68.783 C 317.238 68.710,317.446 68.432,317.584 68.165 C 317.722 67.899,318.003 67.497,318.209 67.273 C 318.802 66.626,319.393 65.855,319.665 65.372 C 319.804 65.127,320.085 64.788,320.292 64.618 C 320.498 64.448,320.667 64.200,320.667 64.066 C 320.667 63.932,320.776 63.781,320.909 63.730 C 321.042 63.679,321.313 63.362,321.510 63.027 C 321.707 62.691,321.973 62.357,322.101 62.283 C 322.405 62.109,322.406 61.333,322.103 61.333 C 321.976 61.333,321.749 61.146,321.599 60.917 C 321.449 60.688,321.227 60.500,321.105 60.500 C 320.984 60.500,320.748 60.349,320.581 60.164 C 320.414 59.980,319.953 59.667,319.556 59.468 C 319.158 59.270,318.833 59.055,318.833 58.991 C 318.833 58.926,318.590 58.777,318.292 58.658 C 317.994 58.539,317.556 58.308,317.318 58.145 C 317.081 57.982,316.443 57.685,315.902 57.485 C 315.360 57.286,314.842 57.065,314.750 56.995 C 314.658 56.925,313.946 56.704,313.167 56.504 C 312.387 56.304,311.600 56.077,311.417 55.999 C 310.370 55.557,306.057 55.395,303.167 55.688 M124.611 56.444 C 124.388 56.667,124.511 57.211,124.992 58.137 C 125.262 58.657,125.602 59.346,125.746 59.667 C 125.891 59.987,126.077 60.362,126.160 60.500 C 126.242 60.637,126.446 61.106,126.613 61.541 C 126.780 61.976,126.964 62.332,127.021 62.333 C 127.079 62.333,127.294 62.783,127.500 63.333 C 127.706 63.883,127.940 64.333,128.020 64.333 C 128.101 64.333,128.167 64.431,128.167 64.550 C 128.167 64.669,128.420 65.260,128.729 65.864 C 129.038 66.467,129.423 67.308,129.585 67.731 C 129.746 68.154,129.943 68.500,130.023 68.500 C 130.102 68.500,130.167 68.583,130.167 68.685 C 130.167 68.787,130.493 69.556,130.893 70.394 C 131.292 71.231,131.672 72.085,131.737 72.292 C 131.802 72.498,131.910 72.667,131.975 72.667 C 132.041 72.667,132.277 73.154,132.500 73.750 C 132.723 74.346,132.955 74.833,133.016 74.833 C 133.076 74.833,133.294 75.283,133.500 75.833 C 133.706 76.383,133.940 76.833,134.020 76.833 C 134.101 76.833,134.167 76.919,134.167 77.023 C 134.167 77.127,134.475 77.858,134.851 78.648 C 136.050 81.163,137.511 84.208,138.182 85.590 C 138.540 86.327,138.833 87.020,138.833 87.131 C 138.833 87.242,138.903 87.333,138.989 87.333 C 139.074 87.333,139.198 87.502,139.263 87.708 C 139.329 87.915,139.709 88.778,140.108 89.626 C 140.507 90.475,140.833 91.243,140.833 91.334 C 140.833 91.425,140.898 91.500,140.977 91.500 C 141.417 91.500,141.687 92.959,141.406 93.819 C 141.253 94.285,141.074 94.667,141.007 94.667 C 140.941 94.667,140.787 94.985,140.665 95.375 C 140.543 95.765,140.249 96.458,140.011 96.917 C 139.773 97.375,139.475 98.050,139.349 98.417 C 139.223 98.783,139.070 99.121,139.010 99.167 C 138.854 99.286,138.167 101.001,138.167 101.272 C 138.167 101.398,138.107 101.500,138.033 101.500 C 137.960 101.500,137.800 101.781,137.677 102.125 C 137.553 102.469,137.210 103.275,136.913 103.917 C 136.617 104.558,136.319 105.271,136.251 105.500 C 136.183 105.729,136.034 106.029,135.920 106.167 C 135.806 106.304,135.575 106.792,135.406 107.250 C 135.238 107.708,135.050 108.121,134.989 108.167 C 134.928 108.212,134.822 108.438,134.752 108.667 C 134.683 108.896,134.336 109.698,133.980 110.448 C 133.624 111.199,133.333 111.906,133.333 112.019 C 133.333 112.131,133.205 112.365,133.049 112.538 C 132.303 113.362,132.623 113.413,138.900 113.461 C 145.361 113.509,145.183 113.540,145.583 112.335 C 145.735 111.876,145.911 111.500,145.973 111.500 C 146.035 111.500,146.185 111.181,146.306 110.792 C 146.427 110.402,146.715 109.708,146.945 109.250 C 147.175 108.792,147.477 108.079,147.617 107.667 C 147.756 107.254,147.953 106.814,148.055 106.689 C 148.227 106.477,148.551 105.696,148.791 104.917 C 148.847 104.733,148.993 104.484,149.113 104.363 C 149.234 104.242,149.333 104.003,149.333 103.831 C 149.333 103.660,149.400 103.479,149.481 103.428 C 149.562 103.378,149.678 103.074,149.739 102.752 C 149.799 102.430,149.914 102.167,149.994 102.167 C 150.074 102.167,150.268 101.773,150.424 101.292 C 150.580 100.810,150.839 100.192,150.999 99.917 C 151.159 99.642,151.427 99.042,151.595 98.583 C 151.762 98.125,151.949 97.712,152.008 97.667 C 152.068 97.621,152.273 97.171,152.464 96.667 C 152.654 96.162,152.965 95.435,153.155 95.050 C 153.345 94.665,153.500 94.273,153.500 94.181 C 153.500 94.088,153.676 93.690,153.891 93.298 C 154.107 92.905,154.425 92.171,154.598 91.667 C 154.772 91.162,154.965 90.712,155.027 90.665 C 155.089 90.618,155.301 90.168,155.498 89.665 C 155.694 89.162,156.038 88.361,156.261 87.885 C 156.484 87.410,156.667 86.959,156.667 86.884 C 156.667 86.809,156.844 86.410,157.061 85.999 C 157.277 85.587,157.551 84.952,157.669 84.588 C 157.787 84.224,157.985 83.825,158.108 83.701 C 158.232 83.577,158.333 83.336,158.333 83.165 C 158.333 82.993,158.403 82.810,158.487 82.758 C 158.572 82.706,158.690 82.439,158.750 82.165 C 158.811 81.891,158.913 81.667,158.979 81.667 C 159.044 81.667,159.239 81.235,159.412 80.708 C 159.585 80.181,159.826 79.632,159.947 79.487 C 160.068 79.342,160.167 79.135,160.167 79.026 C 160.167 78.918,160.232 78.699,160.312 78.539 C 160.878 77.415,161.507 75.973,161.694 75.375 C 161.815 74.985,161.965 74.667,162.027 74.667 C 162.089 74.667,162.307 74.160,162.511 73.542 C 162.716 72.923,162.940 72.379,163.010 72.333 C 163.079 72.287,163.263 71.912,163.418 71.500 C 163.573 71.087,163.912 70.300,164.172 69.750 C 164.431 69.200,164.694 68.544,164.756 68.292 C 164.818 68.040,164.928 67.833,165.000 67.833 C 165.072 67.833,165.181 67.632,165.243 67.385 C 165.305 67.139,165.602 66.408,165.904 65.760 C 166.205 65.113,166.543 64.302,166.656 63.958 C 166.768 63.615,166.910 63.333,166.972 63.333 C 167.035 63.333,167.185 63.015,167.306 62.625 C 167.493 62.027,168.122 60.585,168.688 59.461 C 168.768 59.301,168.833 59.058,168.833 58.919 C 168.833 58.780,168.894 58.667,168.967 58.667 C 169.122 58.667,169.669 57.216,169.667 56.809 C 169.666 56.358,169.355 56.333,163.778 56.339 C 157.731 56.345,158.048 56.277,157.496 57.678 C 157.300 58.175,157.070 58.666,156.985 58.768 C 156.901 58.870,156.689 59.369,156.514 59.877 C 156.339 60.385,156.086 60.977,155.951 61.192 C 155.817 61.407,155.570 61.958,155.404 62.417 C 155.237 62.875,155.050 63.288,154.989 63.333 C 154.928 63.379,154.708 63.885,154.500 64.458 C 154.292 65.031,154.057 65.500,153.978 65.500 C 153.898 65.500,153.833 65.614,153.833 65.752 C 153.833 65.891,153.763 66.135,153.677 66.294 C 153.370 66.861,152.542 68.761,152.316 69.417 C 152.189 69.783,152.033 70.122,151.970 70.170 C 151.802 70.296,151.167 71.820,151.167 72.097 C 151.167 72.227,151.099 72.333,151.016 72.333 C 150.932 72.333,150.732 72.753,150.571 73.266 C 150.410 73.779,150.188 74.289,150.078 74.399 C 149.967 74.509,149.821 74.783,149.752 75.008 C 149.682 75.233,149.375 75.957,149.068 76.618 C 148.761 77.279,148.462 78.010,148.403 78.243 C 148.227 78.948,147.899 78.723,147.500 77.625 C 147.292 77.052,147.071 76.546,147.009 76.500 C 146.947 76.454,146.718 75.967,146.500 75.417 C 146.282 74.867,146.057 74.379,146.000 74.333 C 145.943 74.287,145.718 73.800,145.500 73.250 C 145.282 72.700,145.057 72.212,144.999 72.167 C 144.941 72.121,144.761 71.746,144.598 71.333 C 144.223 70.379,143.220 68.171,142.018 65.648 C 141.641 64.858,141.333 64.114,141.333 63.994 C 141.333 63.874,141.230 63.658,141.103 63.513 C 140.976 63.368,140.703 62.781,140.497 62.208 C 140.291 61.635,140.072 61.167,140.011 61.167 C 139.950 61.167,139.805 60.885,139.689 60.542 C 139.573 60.198,139.245 59.429,138.961 58.833 C 138.676 58.237,138.366 57.563,138.271 57.333 C 137.831 56.275,138.243 56.333,131.169 56.333 C 127.623 56.333,124.672 56.383,124.611 56.444 M271.708 57.498 C 271.410 57.680,271.167 57.893,271.167 57.972 C 271.167 58.051,271.023 58.183,270.848 58.266 C 270.673 58.349,270.083 58.829,269.537 59.333 C 268.990 59.837,267.997 60.737,267.329 61.333 C 266.101 62.430,261.928 66.571,261.173 67.443 C 260.947 67.703,260.235 68.522,259.590 69.263 C 258.944 70.003,258.192 70.894,257.917 71.243 C 257.642 71.592,257.227 72.111,256.996 72.397 C 256.425 73.103,255.167 74.945,255.167 75.075 C 255.167 75.133,255.028 75.329,254.859 75.511 C 254.689 75.693,254.452 76.140,254.332 76.504 C 254.212 76.869,254.055 77.167,253.983 77.167 C 253.911 77.167,253.681 77.710,253.470 78.375 C 253.260 79.040,253.040 79.621,252.980 79.667 C 252.236 80.241,252.238 89.103,252.982 89.667 C 253.043 89.712,253.228 90.200,253.394 90.750 C 253.560 91.300,253.877 92.030,254.098 92.371 C 254.319 92.713,254.500 93.054,254.500 93.130 C 254.500 93.423,256.464 95.361,257.314 95.906 C 258.407 96.608,259.387 96.833,261.342 96.833 L 262.833 96.833 262.833 97.407 C 262.833 97.722,262.903 98.023,262.987 98.075 C 263.072 98.128,263.188 98.382,263.244 98.641 C 263.376 99.240,264.494 100.307,265.204 100.511 C 266.365 100.844,268.582 100.582,268.771 100.089 C 268.818 99.967,268.999 99.829,269.174 99.783 C 269.349 99.737,269.587 99.486,269.702 99.225 C 269.818 98.964,270.007 98.651,270.123 98.530 C 270.239 98.409,270.334 98.146,270.336 97.946 C 270.343 96.807,270.131 96.867,274.391 96.794 C 278.200 96.728,279.833 96.489,279.833 95.996 C 279.833 95.919,279.976 95.810,280.151 95.755 C 280.541 95.631,282.311 93.835,282.661 93.208 C 282.802 92.956,282.962 92.712,283.018 92.667 C 283.180 92.534,283.833 90.980,283.833 90.729 C 283.833 90.603,283.897 90.500,283.975 90.500 C 285.011 90.500,285.029 81.092,283.997 78.750 C 283.835 78.383,283.571 77.765,283.410 77.375 C 283.248 76.985,283.066 76.667,283.006 76.667 C 282.945 76.667,282.767 76.398,282.610 76.069 C 282.329 75.479,282.629 73.667,283.008 73.667 C 283.071 73.667,283.292 73.160,283.500 72.542 C 283.708 71.923,283.928 71.379,283.990 71.333 C 284.051 71.287,284.276 70.762,284.488 70.167 C 284.700 69.571,284.934 69.007,285.008 68.915 C 285.081 68.822,285.307 68.297,285.510 67.748 C 285.712 67.199,285.943 66.667,286.023 66.565 C 286.103 66.464,286.318 65.947,286.500 65.417 C 286.682 64.887,286.898 64.370,286.979 64.268 C 287.060 64.166,287.300 63.596,287.512 63.000 C 287.724 62.404,287.963 61.872,288.043 61.817 C 288.255 61.671,288.250 60.611,288.037 60.540 C 287.937 60.507,287.694 59.959,287.497 59.323 C 287.300 58.687,287.076 58.167,286.999 58.167 C 286.923 58.167,286.810 57.942,286.750 57.667 L 286.640 57.167 279.445 57.167 C 272.566 57.168,272.226 57.182,271.708 57.498 M106.244 65.698 C 107.138 65.899,108.412 66.584,109.132 67.252 C 109.380 67.482,109.696 67.709,109.833 67.756 C 110.890 68.118,110.731 68.899,109.513 69.333 C 109.185 69.450,108.354 69.805,107.667 70.122 C 105.192 71.263,104.741 71.463,104.167 71.679 C 103.846 71.799,103.546 71.951,103.500 72.016 C 103.454 72.081,102.967 72.293,102.417 72.486 C 101.867 72.679,101.392 72.911,101.361 73.002 C 101.331 73.092,101.191 73.167,101.052 73.167 C 100.912 73.167,100.337 73.383,99.774 73.648 C 98.066 74.450,97.136 74.833,96.895 74.833 C 96.770 74.833,96.667 74.908,96.667 75.000 C 96.667 75.092,96.573 75.169,96.458 75.172 C 96.344 75.175,95.950 75.323,95.583 75.500 C 95.217 75.677,94.851 75.825,94.770 75.828 C 94.571 75.835,94.734 73.240,94.950 72.968 C 95.045 72.848,95.215 72.337,95.327 71.833 C 95.598 70.620,96.507 69.086,97.583 68.027 C 98.656 66.971,99.075 66.683,100.509 66.011 C 101.697 65.455,104.478 65.303,106.244 65.698 M233.141 65.949 C 233.201 66.041,233.680 66.249,234.206 66.413 C 235.268 66.744,235.563 66.953,237.081 68.452 C 238.321 69.678,239.267 71.311,239.611 72.824 C 239.748 73.425,239.929 74.047,240.013 74.206 C 240.207 74.572,240.215 77.408,240.023 77.794 C 239.944 77.953,239.718 78.754,239.522 79.574 C 239.325 80.394,239.100 81.107,239.021 81.157 C 238.943 81.208,238.717 81.569,238.519 81.958 C 238.321 82.348,238.099 82.667,238.025 82.667 C 237.950 82.667,237.792 82.849,237.673 83.072 C 237.554 83.294,237.072 83.781,236.603 84.153 C 236.134 84.525,235.668 84.898,235.568 84.981 C 235.276 85.222,234.367 85.667,234.166 85.667 C 234.065 85.667,233.648 85.819,233.241 86.004 C 232.165 86.494,228.729 86.487,228.083 85.993 C 227.992 85.923,227.617 85.786,227.250 85.687 C 225.589 85.242,223.310 83.189,222.451 81.365 C 222.249 80.935,222.003 80.497,221.904 80.393 C 221.014 79.443,221.071 72.358,221.974 71.667 C 222.034 71.621,222.255 71.219,222.465 70.774 C 223.062 69.507,224.369 67.952,225.292 67.412 C 225.590 67.238,225.833 67.036,225.833 66.964 C 225.833 66.892,225.908 66.833,226.000 66.833 C 226.091 66.833,226.635 66.615,227.208 66.348 C 227.781 66.081,228.400 65.822,228.583 65.773 C 229.146 65.623,233.026 65.773,233.141 65.949 M276.487 68.603 C 276.265 68.843,275.832 69.293,275.525 69.603 L 274.967 70.167 269.567 70.167 C 266.597 70.167,264.167 70.116,264.167 70.054 C 264.167 69.991,264.560 69.542,265.042 69.055 L 265.917 68.169 271.404 68.168 L 276.891 68.167 276.487 68.603 M268.500 96.992 C 268.500 98.619,266.358 99.350,265.222 98.111 C 264.901 97.760,264.667 97.328,264.667 97.086 L 264.667 96.667 266.583 96.667 C 268.373 96.667,268.500 96.688,268.500 96.992 " stroke="none" fill="#ffffff" fill-rule="evenodd"></path><path id="path1" d="M38.167 60.752 L 38.167 96.171 44.125 96.127 L 50.083 96.083 50.177 85.250 C 50.273 74.208,50.340 73.089,50.950 72.294 C 51.039 72.178,51.283 71.652,51.492 71.125 C 51.701 70.598,51.933 70.167,52.008 70.167 C 52.083 70.167,52.191 70.021,52.247 69.842 C 52.360 69.487,54.416 67.333,54.642 67.333 C 54.719 67.333,54.955 67.184,55.165 67.001 C 55.598 66.626,56.380 66.369,57.542 66.221 C 57.977 66.166,58.333 66.056,58.333 65.977 C 58.333 65.776,59.458 65.797,59.583 66.000 C 59.640 66.092,59.851 66.167,60.052 66.168 C 60.859 66.170,61.706 66.551,62.380 67.217 C 63.669 68.490,63.578 67.370,63.630 82.542 L 63.676 96.167 69.761 96.167 L 75.846 96.167 75.786 80.792 C 75.722 64.250,75.733 64.473,74.852 62.716 C 74.658 62.331,74.500 61.937,74.500 61.841 C 74.500 61.745,74.369 61.531,74.208 61.364 C 74.048 61.198,73.773 60.809,73.598 60.501 C 73.184 59.772,71.166 57.808,70.417 57.405 C 70.096 57.232,69.833 57.042,69.833 56.981 C 69.833 56.921,69.402 56.699,68.875 56.488 C 68.348 56.277,67.876 56.045,67.826 55.973 C 67.440 55.414,61.620 54.973,59.144 55.316 C 57.268 55.576,56.167 55.835,56.167 56.017 C 56.167 56.099,56.015 56.167,55.829 56.167 C 55.397 56.167,53.635 56.783,53.511 56.977 C 53.459 57.058,53.023 57.293,52.542 57.500 C 52.060 57.706,51.667 57.929,51.667 57.995 C 51.667 58.062,51.363 58.253,50.992 58.420 C 50.621 58.588,50.265 58.807,50.200 58.908 C 50.136 59.009,49.874 59.224,49.618 59.387 L 49.154 59.683 49.246 56.883 C 49.297 55.343,49.412 49.208,49.501 43.250 C 49.591 37.292,49.710 30.823,49.767 28.875 L 49.870 25.333 44.018 25.333 L 38.167 25.333 38.167 60.752 M327.833 60.750 L 327.833 96.167 333.833 96.167 L 339.833 96.167 339.833 85.998 C 339.833 80.405,339.899 75.699,339.979 75.539 C 340.060 75.380,340.242 74.631,340.384 73.876 C 340.639 72.514,341.551 70.399,342.250 69.546 C 343.947 67.474,346.018 66.167,347.603 66.167 C 347.902 66.167,348.193 66.092,348.250 66.000 C 348.376 65.796,349.500 65.776,349.500 65.977 C 349.500 66.057,349.830 66.167,350.233 66.222 C 351.296 66.367,352.040 66.777,352.505 67.472 C 352.730 67.808,352.962 68.121,353.022 68.167 C 353.524 68.554,353.571 69.709,353.625 82.875 L 353.680 96.167 359.680 96.167 L 365.680 96.167 365.619 80.625 C 365.558 65.040,365.500 63.500,364.972 63.500 C 364.896 63.500,364.833 63.383,364.833 63.239 C 364.833 62.909,364.161 61.333,364.020 61.333 C 363.962 61.333,363.812 61.102,363.688 60.820 C 363.402 60.174,361.294 58.040,360.414 57.505 C 360.049 57.283,359.712 57.050,359.667 56.988 C 359.621 56.926,359.171 56.701,358.667 56.488 C 358.162 56.275,357.712 56.050,357.667 55.988 C 356.951 55.022,348.239 54.967,346.083 55.916 C 345.808 56.037,345.145 56.268,344.609 56.429 C 344.073 56.590,343.548 56.805,343.442 56.906 C 343.337 57.007,342.920 57.236,342.517 57.414 C 342.114 57.593,341.702 57.819,341.601 57.917 C 341.499 58.015,341.079 58.298,340.667 58.547 C 340.254 58.796,339.661 59.206,339.348 59.458 C 338.894 59.824,338.816 59.849,338.961 59.583 C 339.082 59.360,339.202 55.134,339.324 46.833 C 339.425 40.004,339.554 32.373,339.613 29.875 L 339.719 25.333 333.776 25.333 L 327.833 25.333 327.833 60.750 M103.333 54.983 C 103.333 55.065,102.715 55.167,101.958 55.209 C 100.383 55.296,97.637 55.778,97.505 55.991 C 97.457 56.069,96.985 56.259,96.458 56.412 C 95.931 56.565,95.400 56.790,95.278 56.912 C 95.156 57.034,94.687 57.258,94.236 57.408 C 93.786 57.559,93.342 57.773,93.250 57.883 C 93.158 57.993,92.746 58.267,92.333 58.492 C 91.485 58.954,91.327 59.067,90.635 59.708 C 90.363 59.960,90.090 60.167,90.027 60.167 C 89.881 60.167,87.339 62.806,86.969 63.343 C 85.794 65.045,85.334 65.777,85.334 65.946 C 85.334 66.054,85.231 66.246,85.105 66.371 C 84.807 66.669,84.333 67.589,84.333 67.869 C 84.333 67.990,84.187 68.361,84.008 68.695 C 83.830 69.028,83.558 69.927,83.405 70.692 C 83.252 71.457,83.050 72.179,82.957 72.295 C 82.713 72.599,82.598 77.709,82.807 79.000 C 83.111 80.889,83.792 83.569,83.983 83.633 C 84.084 83.667,84.167 83.847,84.167 84.032 C 84.167 84.414,85.508 87.309,85.857 87.681 C 85.981 87.814,86.228 88.184,86.405 88.503 C 86.764 89.149,87.076 89.513,88.700 91.184 C 89.315 91.816,89.884 92.333,89.966 92.333 C 90.048 92.333,90.250 92.483,90.415 92.665 C 90.580 92.848,91.061 93.197,91.483 93.442 C 91.905 93.687,92.287 93.940,92.333 94.005 C 92.469 94.196,93.800 94.833,94.063 94.833 C 94.196 94.833,94.331 94.908,94.361 94.998 C 94.392 95.089,94.867 95.315,95.417 95.501 C 95.967 95.687,96.533 95.904,96.676 95.984 C 98.835 97.193,108.243 97.290,110.833 96.129 C 111.154 95.986,111.960 95.697,112.625 95.487 C 113.290 95.277,113.833 95.045,113.833 94.970 C 113.833 94.895,113.949 94.833,114.090 94.833 C 114.347 94.833,115.677 94.212,115.833 94.019 C 115.879 93.963,116.292 93.733,116.750 93.509 C 117.208 93.285,117.658 93.041,117.750 92.967 C 117.842 92.893,118.291 92.588,118.748 92.291 C 119.206 91.993,119.602 91.637,119.628 91.499 C 119.672 91.264,118.614 89.471,117.843 88.474 C 117.654 88.230,117.500 87.975,117.500 87.908 C 117.500 87.840,117.237 87.389,116.917 86.906 C 116.596 86.422,116.333 85.950,116.333 85.855 C 116.333 85.761,116.234 85.623,116.113 85.550 C 115.992 85.477,115.698 85.079,115.460 84.667 C 115.221 84.254,114.821 83.560,114.570 83.125 C 114.057 82.234,113.827 82.173,113.018 82.709 C 110.565 84.332,108.407 85.406,107.083 85.662 C 106.533 85.769,105.812 85.926,105.481 86.011 C 104.696 86.214,104.046 86.209,103.917 86.000 C 103.860 85.908,103.462 85.833,103.032 85.832 C 101.730 85.831,99.143 84.823,97.861 83.818 L 97.472 83.513 97.944 83.415 C 98.204 83.360,98.642 83.208,98.917 83.077 C 99.192 82.945,99.942 82.678,100.583 82.484 C 101.225 82.289,101.787 82.080,101.833 82.020 C 101.879 81.960,102.517 81.738,103.250 81.527 C 103.983 81.316,104.608 81.073,104.639 80.988 C 104.669 80.903,104.826 80.833,104.988 80.833 C 105.281 80.833,106.953 80.304,107.583 80.012 C 107.767 79.927,108.442 79.695,109.083 79.497 C 109.725 79.299,110.497 79.026,110.798 78.891 C 111.100 78.756,111.737 78.533,112.215 78.397 C 112.693 78.261,113.308 78.047,113.583 77.921 C 113.858 77.795,114.571 77.531,115.167 77.335 C 115.763 77.138,116.700 76.829,117.250 76.647 C 117.800 76.466,118.475 76.208,118.750 76.074 C 119.025 75.941,119.691 75.718,120.230 75.579 C 120.770 75.440,121.407 75.221,121.647 75.093 C 121.887 74.966,122.646 74.690,123.333 74.480 C 124.807 74.031,125.333 73.638,125.055 73.193 C 124.954 73.030,124.739 72.301,124.579 71.573 C 124.420 70.846,124.156 69.985,123.993 69.662 C 123.830 69.338,123.573 68.644,123.420 68.120 C 123.268 67.596,123.088 67.167,123.021 67.167 C 122.954 67.167,122.763 66.788,122.597 66.326 C 122.430 65.863,122.209 65.395,122.106 65.284 C 122.002 65.174,121.749 64.727,121.544 64.292 C 121.339 63.856,121.109 63.500,121.033 63.500 C 120.957 63.500,120.769 63.235,120.614 62.912 C 120.460 62.588,120.221 62.280,120.084 62.227 C 119.946 62.174,119.833 62.045,119.833 61.940 C 119.833 61.567,116.455 58.339,116.057 58.330 C 115.980 58.329,115.753 58.155,115.554 57.944 C 115.354 57.734,114.889 57.462,114.521 57.340 C 114.152 57.219,113.815 57.027,113.772 56.914 C 113.729 56.802,113.481 56.658,113.222 56.595 C 112.962 56.532,112.450 56.342,112.083 56.173 C 111.214 55.771,108.508 55.167,107.581 55.167 C 107.180 55.167,106.807 55.092,106.750 55.000 C 106.622 54.793,103.333 54.776,103.333 54.983 M229.417 55.000 C 229.360 55.092,228.924 55.169,228.448 55.172 C 227.336 55.178,224.077 55.729,223.798 55.958 C 223.680 56.055,223.246 56.220,222.833 56.325 C 221.823 56.582,221.167 56.847,221.167 56.999 C 221.167 57.067,220.834 57.216,220.428 57.330 C 220.022 57.444,219.553 57.660,219.386 57.810 C 219.218 57.960,218.749 58.265,218.343 58.486 C 217.493 58.951,217.112 59.235,216.483 59.875 C 216.236 60.127,215.966 60.333,215.884 60.333 C 215.694 60.333,213.770 62.350,213.384 62.955 C 213.222 63.209,212.957 63.515,212.795 63.634 C 212.633 63.754,212.500 63.942,212.500 64.051 C 212.500 64.161,212.315 64.464,212.090 64.726 C 211.865 64.988,211.555 65.532,211.401 65.934 C 211.247 66.337,211.068 66.667,211.003 66.667 C 210.939 66.667,210.705 67.210,210.484 67.875 C 210.264 68.540,210.036 69.121,209.978 69.167 C 209.612 69.457,208.965 73.856,208.973 76.000 C 208.982 78.595,209.500 81.942,210.098 83.275 C 210.227 83.564,210.333 83.891,210.333 84.002 C 210.333 84.306,211.840 87.298,212.103 87.516 C 212.230 87.622,212.333 87.800,212.333 87.913 C 212.333 88.026,212.517 88.316,212.741 88.558 C 212.966 88.800,213.209 89.103,213.283 89.231 C 213.533 89.666,215.248 91.414,216.161 92.167 C 216.662 92.579,217.220 93.048,217.401 93.208 C 217.582 93.369,217.809 93.500,217.907 93.500 C 218.005 93.500,218.443 93.755,218.882 94.067 C 219.320 94.379,219.882 94.684,220.129 94.747 C 220.377 94.809,220.618 94.918,220.665 94.988 C 220.787 95.173,222.617 95.833,223.006 95.833 C 223.186 95.833,223.333 95.894,223.333 95.968 C 223.333 96.408,229.034 97.225,231.333 97.114 C 233.402 97.014,237.214 96.417,237.869 96.091 C 238.123 95.964,238.561 95.810,238.843 95.748 C 239.125 95.686,239.557 95.530,239.803 95.402 C 240.049 95.274,240.344 95.168,240.458 95.168 C 240.573 95.167,240.667 95.110,240.667 95.042 C 240.668 94.973,241.024 94.773,241.459 94.597 C 241.894 94.421,242.448 94.121,242.690 93.930 C 242.932 93.739,243.557 93.283,244.080 92.917 C 244.602 92.550,245.201 92.100,245.410 91.917 C 245.619 91.733,245.931 91.466,246.103 91.322 C 246.276 91.179,246.717 90.702,247.083 90.263 C 247.450 89.823,247.956 89.228,248.207 88.940 C 248.458 88.652,248.713 88.267,248.773 88.084 C 248.833 87.901,248.976 87.676,249.092 87.584 C 249.207 87.492,249.579 86.854,249.919 86.167 C 250.258 85.479,250.603 84.786,250.685 84.627 C 250.766 84.468,250.833 84.231,250.833 84.099 C 250.833 83.968,250.891 83.836,250.961 83.806 C 251.144 83.725,251.646 82.034,251.772 81.072 C 251.831 80.620,251.948 80.163,252.031 80.057 C 252.506 79.451,252.503 72.547,252.028 71.940 C 251.946 71.835,251.832 71.375,251.774 70.917 C 251.641 69.857,251.145 68.167,250.968 68.167 C 250.894 68.167,250.833 68.032,250.833 67.867 C 250.833 67.524,249.410 64.668,249.113 64.416 C 249.005 64.324,248.771 63.987,248.594 63.666 C 248.137 62.843,246.364 60.805,245.804 60.461 C 245.545 60.302,245.333 60.103,245.333 60.019 C 245.333 59.935,245.090 59.709,244.792 59.517 C 243.653 58.781,242.738 58.165,242.426 57.922 C 242.248 57.783,241.761 57.542,241.343 57.385 C 240.925 57.229,240.546 57.057,240.500 57.004 C 240.339 56.817,239.076 56.343,238.458 56.237 C 238.115 56.178,237.833 56.068,237.833 55.993 C 237.833 55.734,234.501 55.167,232.980 55.167 C 232.544 55.167,232.140 55.092,232.083 55.000 C 232.027 54.908,231.427 54.833,230.750 54.833 C 230.073 54.833,229.473 54.908,229.417 55.000 M187.417 55.687 C 186.592 55.764,185.767 55.899,185.583 55.985 C 185.400 56.071,185.063 56.179,184.833 56.224 C 183.881 56.413,182.430 56.871,182.099 57.088 C 181.904 57.216,181.434 57.430,181.055 57.564 C 180.676 57.698,180.040 58.013,179.641 58.265 C 177.272 59.763,177.473 59.607,175.458 61.506 C 174.748 62.175,174.167 62.815,174.167 62.927 C 174.167 63.039,174.054 63.174,173.916 63.227 C 173.779 63.280,173.540 63.588,173.386 63.912 C 173.231 64.235,173.043 64.500,172.967 64.500 C 172.891 64.500,172.661 64.856,172.456 65.292 C 172.251 65.727,171.993 66.158,171.883 66.250 C 171.773 66.342,171.558 66.792,171.405 67.250 C 171.252 67.708,171.061 68.125,170.981 68.176 C 170.900 68.228,170.683 68.865,170.499 69.593 C 170.315 70.321,170.087 71.051,169.993 71.215 C 169.465 72.136,169.447 80.724,169.971 81.392 C 170.053 81.497,170.256 82.144,170.421 82.829 C 170.586 83.515,170.925 84.490,171.173 84.996 C 171.422 85.502,171.677 86.085,171.741 86.292 C 171.804 86.498,171.911 86.667,171.978 86.667 C 172.045 86.667,172.189 86.910,172.298 87.208 C 172.407 87.506,172.721 88.013,172.997 88.333 C 173.273 88.654,173.499 88.978,173.500 89.054 C 173.500 89.175,174.448 90.243,175.433 91.232 C 175.750 91.550,176.861 92.531,177.500 93.056 C 177.637 93.169,178.048 93.409,178.412 93.589 C 178.776 93.769,179.209 94.037,179.375 94.183 C 179.540 94.330,179.992 94.552,180.379 94.678 C 180.767 94.804,181.179 94.999,181.297 95.113 C 181.414 95.227,181.939 95.446,182.463 95.600 C 182.988 95.754,183.655 95.983,183.946 96.109 C 184.686 96.428,185.917 96.642,187.764 96.772 C 188.633 96.833,189.384 96.947,189.432 97.025 C 189.550 97.216,192.429 97.206,192.794 97.014 C 192.953 96.930,193.886 96.778,194.867 96.675 C 196.641 96.489,197.274 96.346,198.275 95.900 C 198.564 95.772,198.899 95.667,199.020 95.667 C 199.387 95.667,200.667 95.131,200.667 94.977 C 200.667 94.898,200.746 94.833,200.842 94.833 C 201.103 94.833,202.465 94.191,202.572 94.018 C 202.623 93.935,202.970 93.709,203.343 93.515 C 203.715 93.320,204.221 92.975,204.467 92.747 C 204.712 92.520,204.999 92.333,205.104 92.333 C 205.209 92.333,205.418 92.146,205.568 91.917 C 205.718 91.688,205.952 91.500,206.087 91.500 C 206.402 91.500,206.409 90.863,206.098 90.514 C 205.968 90.369,205.631 90.000,205.348 89.696 C 205.065 89.391,204.833 89.078,204.833 89.002 C 204.833 88.926,204.608 88.674,204.333 88.442 C 204.058 88.211,203.833 87.960,203.833 87.886 C 203.832 87.811,203.626 87.525,203.374 87.249 C 203.123 86.974,202.556 86.299,202.116 85.749 C 199.817 82.883,199.951 82.973,198.973 83.625 C 197.256 84.770,195.683 85.613,195.000 85.755 C 194.679 85.821,194.366 85.955,194.304 86.052 C 194.147 86.299,189.296 86.310,188.985 86.065 C 188.856 85.963,188.318 85.746,187.790 85.583 C 187.263 85.420,186.670 85.147,186.473 84.977 C 186.277 84.806,186.046 84.667,185.962 84.667 C 185.715 84.667,183.333 82.175,183.333 81.917 C 183.333 81.789,183.221 81.620,183.083 81.543 C 182.945 81.466,182.680 80.956,182.494 80.410 C 182.307 79.864,182.085 79.267,182.000 79.083 C 181.493 77.995,181.498 74.381,182.008 73.250 C 182.091 73.067,182.321 72.471,182.520 71.925 C 182.719 71.380,183.021 70.785,183.191 70.602 C 183.361 70.420,183.500 70.197,183.500 70.108 C 183.500 69.789,185.668 67.857,186.617 67.331 C 189.552 65.703,195.070 66.152,197.399 68.208 C 197.581 68.369,197.796 68.500,197.878 68.500 C 197.959 68.500,198.445 68.800,198.957 69.167 C 200.160 70.029,200.357 70.010,201.163 68.958 C 201.531 68.477,201.934 67.971,202.059 67.833 C 202.183 67.696,202.425 67.358,202.597 67.083 C 202.768 66.808,202.957 66.546,203.016 66.500 C 203.186 66.368,204.833 64.188,204.833 64.095 C 204.833 64.049,204.988 63.840,205.177 63.631 C 206.414 62.257,206.889 61.333,206.358 61.333 C 206.280 61.333,205.961 61.108,205.650 60.833 C 204.645 59.944,204.526 59.855,203.967 59.572 C 203.664 59.419,203.304 59.195,203.167 59.076 C 202.870 58.818,200.321 57.500,200.119 57.500 C 200.042 57.500,199.590 57.321,199.115 57.103 C 198.133 56.653,196.548 56.167,196.060 56.167 C 195.880 56.167,195.662 56.100,195.575 56.018 C 195.115 55.588,190.470 55.399,187.417 55.687 M303.167 55.688 C 302.387 55.767,301.600 55.902,301.417 55.987 C 301.233 56.072,300.896 56.179,300.667 56.224 C 299.771 56.400,298.382 56.841,297.667 57.175 C 296.981 57.496,296.505 57.734,295.083 58.468 C 294.644 58.694,293.933 59.204,292.354 60.420 C 291.499 61.079,289.167 63.614,289.167 63.884 C 289.167 63.939,288.979 64.185,288.750 64.432 C 288.521 64.680,288.333 64.978,288.333 65.096 C 288.333 65.213,288.237 65.409,288.118 65.530 C 287.726 65.931,286.535 68.569,286.325 69.500 C 286.211 70.004,286.059 70.456,285.986 70.504 C 285.141 71.058,285.213 79.958,286.081 82.417 C 286.308 83.058,286.495 83.713,286.496 83.871 C 286.502 84.296,288.522 88.151,288.955 88.563 C 289.160 88.758,289.329 88.998,289.330 89.097 C 289.332 89.197,289.540 89.469,289.792 89.702 C 290.044 89.935,290.573 90.510,290.968 90.980 C 291.362 91.449,291.750 91.833,291.830 91.833 C 291.909 91.833,292.224 92.065,292.529 92.348 C 293.420 93.175,293.553 93.274,294.167 93.585 C 294.487 93.747,294.787 93.931,294.833 93.993 C 294.955 94.158,296.404 94.833,296.636 94.833 C 296.745 94.833,296.833 94.894,296.833 94.969 C 296.833 95.128,298.780 95.837,299.208 95.835 C 299.369 95.834,299.500 95.893,299.500 95.965 C 299.500 96.199,301.030 96.519,303.000 96.697 C 304.054 96.792,305.073 96.943,305.263 97.032 C 306.083 97.412,313.417 96.531,313.833 96.002 C 313.879 95.944,314.427 95.760,315.051 95.594 C 315.674 95.427,316.274 95.202,316.384 95.093 C 316.494 94.984,316.996 94.692,317.500 94.444 C 318.838 93.785,319.833 93.164,319.833 92.988 C 319.833 92.903,319.911 92.833,320.007 92.833 C 320.383 92.833,322.167 91.333,322.167 91.016 C 322.167 90.916,322.027 90.673,321.856 90.478 C 321.685 90.282,321.329 89.864,321.064 89.549 C 320.800 89.234,320.377 88.764,320.125 88.505 C 319.873 88.245,319.667 87.956,319.667 87.862 C 319.667 87.768,319.498 87.554,319.291 87.387 C 319.084 87.220,318.793 86.896,318.643 86.667 C 318.494 86.438,318.232 86.090,318.061 85.894 C 317.890 85.697,317.487 85.215,317.167 84.821 C 316.846 84.427,316.372 83.878,316.114 83.600 L 315.646 83.095 314.906 83.487 C 314.499 83.703,314.167 83.927,314.167 83.985 C 314.167 84.043,313.812 84.276,313.378 84.503 C 312.944 84.731,312.501 84.998,312.394 85.097 C 312.286 85.196,311.760 85.414,311.224 85.581 C 310.688 85.748,310.201 85.960,310.140 86.052 C 309.982 86.294,305.325 86.299,304.819 86.058 C 304.598 85.952,303.948 85.699,303.375 85.496 C 302.802 85.292,302.333 85.060,302.333 84.980 C 302.333 84.899,302.255 84.833,302.160 84.833 C 301.377 84.833,298.987 82.166,298.389 80.625 C 298.238 80.235,298.061 79.842,297.995 79.750 C 297.277 78.740,297.301 72.667,298.023 72.667 C 298.102 72.667,298.167 72.564,298.167 72.438 C 298.167 72.063,298.861 70.594,299.106 70.450 C 299.231 70.377,299.333 70.225,299.333 70.113 C 299.333 69.311,302.828 66.874,304.488 66.518 C 306.511 66.084,310.379 66.466,311.314 67.191 C 311.533 67.361,311.791 67.500,311.887 67.500 C 312.109 67.500,314.397 68.865,314.474 69.043 C 314.555 69.232,315.772 69.833,316.073 69.833 C 316.212 69.833,316.457 69.627,316.617 69.375 C 316.777 69.123,317.004 68.857,317.121 68.783 C 317.238 68.710,317.446 68.432,317.584 68.165 C 317.722 67.899,318.003 67.497,318.209 67.273 C 318.802 66.626,319.393 65.855,319.665 65.372 C 319.804 65.127,320.085 64.788,320.292 64.618 C 320.498 64.448,320.667 64.200,320.667 64.066 C 320.667 63.932,320.776 63.781,320.909 63.730 C 321.042 63.679,321.313 63.362,321.510 63.027 C 321.707 62.691,321.973 62.357,322.101 62.283 C 322.405 62.109,322.406 61.333,322.103 61.333 C 321.976 61.333,321.749 61.146,321.599 60.917 C 321.449 60.688,321.227 60.500,321.105 60.500 C 320.984 60.500,320.748 60.349,320.581 60.164 C 320.414 59.980,319.953 59.667,319.556 59.468 C 319.158 59.270,318.833 59.055,318.833 58.991 C 318.833 58.926,318.590 58.777,318.292 58.658 C 317.994 58.539,317.556 58.308,317.318 58.145 C 317.081 57.982,316.443 57.685,315.902 57.485 C 315.360 57.286,314.842 57.065,314.750 56.995 C 314.658 56.925,313.946 56.704,313.167 56.504 C 312.387 56.304,311.600 56.077,311.417 55.999 C 310.370 55.557,306.057 55.395,303.167 55.688 M124.611 56.444 C 124.388 56.667,124.511 57.211,124.992 58.137 C 125.262 58.657,125.602 59.346,125.746 59.667 C 125.891 59.987,126.077 60.362,126.160 60.500 C 126.242 60.637,126.446 61.106,126.613 61.541 C 126.780 61.976,126.964 62.332,127.021 62.333 C 127.079 62.333,127.294 62.783,127.500 63.333 C 127.706 63.883,127.940 64.333,128.020 64.333 C 128.101 64.333,128.167 64.431,128.167 64.550 C 128.167 64.669,128.420 65.260,128.729 65.864 C 129.038 66.467,129.423 67.308,129.585 67.731 C 129.746 68.154,129.943 68.500,130.023 68.500 C 130.102 68.500,130.167 68.583,130.167 68.685 C 130.167 68.787,130.493 69.556,130.893 70.394 C 131.292 71.231,131.672 72.085,131.737 72.292 C 131.802 72.498,131.910 72.667,131.975 72.667 C 132.041 72.667,132.277 73.154,132.500 73.750 C 132.723 74.346,132.955 74.833,133.016 74.833 C 133.076 74.833,133.294 75.283,133.500 75.833 C 133.706 76.383,133.940 76.833,134.020 76.833 C 134.101 76.833,134.167 76.919,134.167 77.023 C 134.167 77.127,134.475 77.858,134.851 78.648 C 136.050 81.163,137.511 84.208,138.182 85.590 C 138.540 86.327,138.833 87.020,138.833 87.131 C 138.833 87.242,138.903 87.333,138.989 87.333 C 139.074 87.333,139.198 87.502,139.263 87.708 C 139.329 87.915,139.709 88.778,140.108 89.626 C 140.507 90.475,140.833 91.243,140.833 91.334 C 140.833 91.425,140.898 91.500,140.977 91.500 C 141.417 91.500,141.687 92.959,141.406 93.819 C 141.253 94.285,141.074 94.667,141.007 94.667 C 140.941 94.667,140.787 94.985,140.665 95.375 C 140.543 95.765,140.249 96.458,140.011 96.917 C 139.773 97.375,139.475 98.050,139.349 98.417 C 139.223 98.783,139.070 99.121,139.010 99.167 C 138.854 99.286,138.167 101.001,138.167 101.272 C 138.167 101.398,138.107 101.500,138.033 101.500 C 137.960 101.500,137.800 101.781,137.677 102.125 C 137.553 102.469,137.210 103.275,136.913 103.917 C 136.617 104.558,136.319 105.271,136.251 105.500 C 136.183 105.729,136.034 106.029,135.920 106.167 C 135.806 106.304,135.575 106.792,135.406 107.250 C 135.238 107.708,135.050 108.121,134.989 108.167 C 134.928 108.212,134.822 108.438,134.752 108.667 C 134.683 108.896,134.336 109.698,133.980 110.448 C 133.624 111.199,133.333 111.906,133.333 112.019 C 133.333 112.131,133.205 112.365,133.049 112.538 C 132.303 113.362,132.623 113.413,138.900 113.461 C 145.361 113.509,145.183 113.540,145.583 112.335 C 145.735 111.876,145.911 111.500,145.973 111.500 C 146.035 111.500,146.185 111.181,146.306 110.792 C 146.427 110.402,146.715 109.708,146.945 109.250 C 147.175 108.792,147.477 108.079,147.617 107.667 C 147.756 107.254,147.953 106.814,148.055 106.689 C 148.227 106.477,148.551 105.696,148.791 104.917 C 148.847 104.733,148.993 104.484,149.113 104.363 C 149.234 104.242,149.333 104.003,149.333 103.831 C 149.333 103.660,149.400 103.479,149.481 103.428 C 149.562 103.378,149.678 103.074,149.739 102.752 C 149.799 102.430,149.914 102.167,149.994 102.167 C 150.074 102.167,150.268 101.773,150.424 101.292 C 150.580 100.810,150.839 100.192,150.999 99.917 C 151.159 99.642,151.427 99.042,151.595 98.583 C 151.762 98.125,151.949 97.712,152.008 97.667 C 152.068 97.621,152.273 97.171,152.464 96.667 C 152.654 96.162,152.965 95.435,153.155 95.050 C 153.345 94.665,153.500 94.273,153.500 94.181 C 153.500 94.088,153.676 93.690,153.891 93.298 C 154.107 92.905,154.425 92.171,154.598 91.667 C 154.772 91.162,154.965 90.712,155.027 90.665 C 155.089 90.618,155.301 90.168,155.498 89.665 C 155.694 89.162,156.038 88.361,156.261 87.885 C 156.484 87.410,156.667 86.959,156.667 86.884 C 156.667 86.809,156.844 86.410,157.061 85.999 C 157.277 85.587,157.551 84.952,157.669 84.588 C 157.787 84.224,157.985 83.825,158.108 83.701 C 158.232 83.577,158.333 83.336,158.333 83.165 C 158.333 82.993,158.403 82.810,158.487 82.758 C 158.572 82.706,158.690 82.439,158.750 82.165 C 158.811 81.891,158.913 81.667,158.979 81.667 C 159.044 81.667,159.239 81.235,159.412 80.708 C 159.585 80.181,159.826 79.632,159.947 79.487 C 160.068 79.342,160.167 79.135,160.167 79.026 C 160.167 78.918,160.232 78.699,160.312 78.539 C 160.878 77.415,161.507 75.973,161.694 75.375 C 161.815 74.985,161.965 74.667,162.027 74.667 C 162.089 74.667,162.307 74.160,162.511 73.542 C 162.716 72.923,162.940 72.379,163.010 72.333 C 163.079 72.287,163.263 71.912,163.418 71.500 C 163.573 71.087,163.912 70.300,164.172 69.750 C 164.431 69.200,164.694 68.544,164.756 68.292 C 164.818 68.040,164.928 67.833,165.000 67.833 C 165.072 67.833,165.181 67.632,165.243 67.385 C 165.305 67.139,165.602 66.408,165.904 65.760 C 166.205 65.113,166.543 64.302,166.656 63.958 C 166.768 63.615,166.910 63.333,166.972 63.333 C 167.035 63.333,167.185 63.015,167.306 62.625 C 167.493 62.027,168.122 60.585,168.688 59.461 C 168.768 59.301,168.833 59.058,168.833 58.919 C 168.833 58.780,168.894 58.667,168.967 58.667 C 169.122 58.667,169.669 57.216,169.667 56.809 C 169.666 56.358,169.355 56.333,163.778 56.339 C 157.731 56.345,158.048 56.277,157.496 57.678 C 157.300 58.175,157.070 58.666,156.985 58.768 C 156.901 58.870,156.689 59.369,156.514 59.877 C 156.339 60.385,156.086 60.977,155.951 61.192 C 155.817 61.407,155.570 61.958,155.404 62.417 C 155.237 62.875,155.050 63.288,154.989 63.333 C 154.928 63.379,154.708 63.885,154.500 64.458 C 154.292 65.031,154.057 65.500,153.978 65.500 C 153.898 65.500,153.833 65.614,153.833 65.752 C 153.833 65.891,153.763 66.135,153.677 66.294 C 153.370 66.861,152.542 68.761,152.316 69.417 C 152.189 69.783,152.033 70.122,151.970 70.170 C 151.802 70.296,151.167 71.820,151.167 72.097 C 151.167 72.227,151.099 72.333,151.016 72.333 C 150.932 72.333,150.732 72.753,150.571 73.266 C 150.410 73.779,150.188 74.289,150.078 74.399 C 149.967 74.509,149.821 74.783,149.752 75.008 C 149.682 75.233,149.375 75.957,149.068 76.618 C 148.761 77.279,148.462 78.010,148.403 78.243 C 148.227 78.948,147.899 78.723,147.500 77.625 C 147.292 77.052,147.071 76.546,147.009 76.500 C 146.947 76.454,146.718 75.967,146.500 75.417 C 146.282 74.867,146.057 74.379,146.000 74.333 C 145.943 74.287,145.718 73.800,145.500 73.250 C 145.282 72.700,145.057 72.212,144.999 72.167 C 144.941 72.121,144.761 71.746,144.598 71.333 C 144.223 70.379,143.220 68.171,142.018 65.648 C 141.641 64.858,141.333 64.114,141.333 63.994 C 141.333 63.874,141.230 63.658,141.103 63.513 C 140.976 63.368,140.703 62.781,140.497 62.208 C 140.291 61.635,140.072 61.167,140.011 61.167 C 139.950 61.167,139.805 60.885,139.689 60.542 C 139.573 60.198,139.245 59.429,138.961 58.833 C 138.676 58.237,138.366 57.563,138.271 57.333 C 137.831 56.275,138.243 56.333,131.169 56.333 C 127.623 56.333,124.672 56.383,124.611 56.444 M271.708 57.498 C 271.410 57.680,271.167 57.893,271.167 57.972 C 271.167 58.051,271.023 58.183,270.848 58.266 C 270.673 58.349,270.083 58.829,269.537 59.333 C 268.990 59.837,267.997 60.737,267.329 61.333 C 266.101 62.430,261.928 66.571,261.173 67.443 C 260.947 67.703,260.235 68.522,259.590 69.263 C 258.944 70.003,258.192 70.894,257.917 71.243 C 257.642 71.592,257.227 72.111,256.996 72.397 C 256.425 73.103,255.167 74.945,255.167 75.075 C 255.167 75.133,255.028 75.329,254.859 75.511 C 254.689 75.693,254.452 76.140,254.332 76.504 C 254.212 76.869,254.055 77.167,253.983 77.167 C 253.911 77.167,253.681 77.710,253.470 78.375 C 253.260 79.040,253.040 79.621,252.980 79.667 C 252.236 80.241,252.238 89.103,252.982 89.667 C 253.043 89.712,253.228 90.200,253.394 90.750 C 253.560 91.300,253.877 92.030,254.098 92.371 C 254.319 92.713,254.500 93.054,254.500 93.130 C 254.500 93.423,256.464 95.361,257.314 95.906 C 258.407 96.608,259.387 96.833,261.342 96.833 L 262.833 96.833 262.833 97.407 C 262.833 97.722,262.903 98.023,262.987 98.075 C 263.072 98.128,263.188 98.382,263.244 98.641 C 263.376 99.240,264.494 100.307,265.204 100.511 C 266.365 100.844,268.582 100.582,268.771 100.089 C 268.818 99.967,268.999 99.829,269.174 99.783 C 269.349 99.737,269.587 99.486,269.702 99.225 C 269.818 98.964,270.007 98.651,270.123 98.530 C 270.239 98.409,270.334 98.146,270.336 97.946 C 270.343 96.807,270.131 96.867,274.391 96.794 C 278.200 96.728,279.833 96.489,279.833 95.996 C 279.833 95.919,279.976 95.810,280.151 95.755 C 280.541 95.631,282.311 93.835,282.661 93.208 C 282.802 92.956,282.962 92.712,283.018 92.667 C 283.180 92.534,283.833 90.980,283.833 90.729 C 283.833 90.603,283.897 90.500,283.975 90.500 C 285.011 90.500,285.029 81.092,283.997 78.750 C 283.835 78.383,283.571 77.765,283.410 77.375 C 283.248 76.985,283.066 76.667,283.006 76.667 C 282.945 76.667,282.767 76.398,282.610 76.069 C 282.329 75.479,282.629 73.667,283.008 73.667 C 283.071 73.667,283.292 73.160,283.500 72.542 C 283.708 71.923,283.928 71.379,283.990 71.333 C 284.051 71.287,284.276 70.762,284.488 70.167 C 284.700 69.571,284.934 69.007,285.008 68.915 C 285.081 68.822,285.307 68.297,285.510 67.748 C 285.712 67.199,285.943 66.667,286.023 66.565 C 286.103 66.464,286.318 65.947,286.500 65.417 C 286.682 64.887,286.898 64.370,286.979 64.268 C 287.060 64.166,287.300 63.596,287.512 63.000 C 287.724 62.404,287.963 61.872,288.043 61.817 C 288.255 61.671,288.250 60.611,288.037 60.540 C 287.937 60.507,287.694 59.959,287.497 59.323 C 287.300 58.687,287.076 58.167,286.999 58.167 C 286.923 58.167,286.810 57.942,286.750 57.667 L 286.640 57.167 279.445 57.167 C 272.566 57.168,272.226 57.182,271.708 57.498 M106.244 65.698 C 107.138 65.899,108.412 66.584,109.132 67.252 C 109.380 67.482,109.696 67.709,109.833 67.756 C 110.890 68.118,110.731 68.899,109.513 69.333 C 109.185 69.450,108.354 69.805,107.667 70.122 C 105.192 71.263,104.741 71.463,104.167 71.679 C 103.846 71.799,103.546 71.951,103.500 72.016 C 103.454 72.081,102.967 72.293,102.417 72.486 C 101.867 72.679,101.392 72.911,101.361 73.002 C 101.331 73.092,101.191 73.167,101.052 73.167 C 100.912 73.167,100.337 73.383,99.774 73.648 C 98.066 74.450,97.136 74.833,96.895 74.833 C 96.770 74.833,96.667 74.908,96.667 75.000 C 96.667 75.092,96.573 75.169,96.458 75.172 C 96.344 75.175,95.950 75.323,95.583 75.500 C 95.217 75.677,94.851 75.825,94.770 75.828 C 94.571 75.835,94.734 73.240,94.950 72.968 C 95.045 72.848,95.215 72.337,95.327 71.833 C 95.598 70.620,96.507 69.086,97.583 68.027 C 98.656 66.971,99.075 66.683,100.509 66.011 C 101.697 65.455,104.478 65.303,106.244 65.698 M233.141 65.949 C 233.201 66.041,233.680 66.249,234.206 66.413 C 235.268 66.744,235.563 66.953,237.081 68.452 C 238.321 69.678,239.267 71.311,239.611 72.824 C 239.748 73.425,239.929 74.047,240.013 74.206 C 240.207 74.572,240.215 77.408,240.023 77.794 C 239.944 77.953,239.718 78.754,239.522 79.574 C 239.325 80.394,239.100 81.107,239.021 81.157 C 238.943 81.208,238.717 81.569,238.519 81.958 C 238.321 82.348,238.099 82.667,238.025 82.667 C 237.950 82.667,237.792 82.849,237.673 83.072 C 237.554 83.294,237.072 83.781,236.603 84.153 C 236.134 84.525,235.668 84.898,235.568 84.981 C 235.276 85.222,234.367 85.667,234.166 85.667 C 234.065 85.667,233.648 85.819,233.241 86.004 C 232.165 86.494,228.729 86.487,228.083 85.993 C 227.992 85.923,227.617 85.786,227.250 85.687 C 225.589 85.242,223.310 83.189,222.451 81.365 C 222.249 80.935,222.003 80.497,221.904 80.393 C 221.014 79.443,221.071 72.358,221.974 71.667 C 222.034 71.621,222.255 71.219,222.465 70.774 C 223.062 69.507,224.369 67.952,225.292 67.412 C 225.590 67.238,225.833 67.036,225.833 66.964 C 225.833 66.892,225.908 66.833,226.000 66.833 C 226.091 66.833,226.635 66.615,227.208 66.348 C 227.781 66.081,228.400 65.822,228.583 65.773 C 229.146 65.623,233.026 65.773,233.141 65.949 M276.487 68.603 C 276.265 68.843,275.832 69.293,275.525 69.603 L 274.967 70.167 269.567 70.167 C 266.597 70.167,264.167 70.116,264.167 70.054 C 264.167 69.991,264.560 69.542,265.042 69.055 L 265.917 68.169 271.404 68.168 L 276.891 68.167 276.487 68.603 M268.500 96.992 C 268.500 98.619,266.358 99.350,265.222 98.111 C 264.901 97.760,264.667 97.328,264.667 97.086 L 264.667 96.667 266.583 96.667 C 268.373 96.667,268.500 96.688,268.500 96.992 " stroke="none" fill="rgba(0,138,230, 1)" fill-rule="evenodd"></path></g></svg>
